<?xml version="1.0" encoding="UTF-8"?>
<svg id="Layer_1" data-name="Layer 1" xmlns="http://www.w3.org/2000/svg" viewBox="0 0 862 632.54">
  <defs>
    <style>
      .cls-1 {
        fill: #009245;
      }

      .cls-2 {
        fill: #231f20;
      }
    </style>
  </defs>
  <g>
    <path class="cls-1" d="M629.73,121.28c-6.89,1.67-14.03,1.3-21,2.93-39.17,9.16-69.05,50.46-113.63,45.8-15.41-1.61-37.29-13.63-45.98-26.51-3.7-5.49,10.21-13.97,14.39-16.82,36.72-25.12,70.95-20.18,111.98-16.63,2.3.2,3,2.47,4.68-1.36-42.48-18.66-100.42-9.12-130.89,12.11-30.47,21.23-45.19,62.69-45.19,62.69,0,0,12.8-44.6,28.33-68.19,66.13-100.45,161.11-27.54,197.31,5.99Z"/>
    <path class="cls-1" d="M452.85,330.83c-12.07-13.56-23.13-28.57-32.27-44.6,45.04-25.77,94.48-44.42,141.93-56.27-51.39-1.57-105.32,8.57-155.09,29-9.96-25.17-14.61-52.11-10.93-79.51,2.51-22.03,10.24-48.99,22.01-69.59,11.87-21.36,28.07-35.07,42.95-54.86-33.71,19.48-65.37,44.4-84.74,79.17-26.02,45.67-26.83,97.44-10.14,144.45-41.96,23.36-79.08,54.63-106.58,92.8-15.26-21.76-24.28-47.36-26.02-74.6-7.94-112.83,96.94-194.06,183.52-249.22,8.89-5.6,17.95-10.95,27.19-16.14-41.49,10.25-81.05,27.52-117.89,49.46-57.08,34.45-108.92,83.45-129.77,148.87-22.3,67.88-3.88,148.58,50.05,196.6l22.51,20.61s13.51-26.67,13.51-26.67c22.77-43.41,57.54-79.62,98.33-108.96,3.63,6.51,7.61,12.87,11.9,19.02,59.05,86.44,172.8,137.84,275.43,117.52-81.89-15.89-160.5-54.06-215.9-117.07Z"/>
  </g>
  <g>
    <path class="cls-2" d="M28.58,499.99h15.73v54.22l43.88-54.22h8.02l-33.82,41.76,44.98,57.33h-19.19l-35.55-45.3-8.34,10.48v34.82h-15.73v-99.09Z"/>
    <path class="cls-2" d="M158.5,599.08l36.81-83.38-7.08-15.71h16.99l44.83,99.09h-16.99l-8.65-19.25h-50.33l-8.49,19.25h-7.08ZM176.59,574.02h45.14l-22.81-50.54-22.33,50.54Z"/>
    <path class="cls-2" d="M378.39,499.99v5.8h-52.22v37.94h41.84v5.8h-41.84v43.74h52.22v5.8h-67.79v-99.09h67.79Z"/>
    <path class="cls-2" d="M432.65,526.6c1.15-3.87,2.1-7.52,2.83-10.97.73-3.44,1.36-6.49,1.89-9.13.52-3.02.89-5.85,1.1-8.49h13.84c-.74,3.21-1.73,6.42-2.99,9.63-1.05,2.83-2.36,5.92-3.93,9.27-1.57,3.35-3.57,6.58-5.98,9.7h-6.76Z"/>
    <path class="cls-2" d="M505.79,587.47l10.38-9.34c.84,1.61,2.1,3.4,3.77,5.38,3.67,4.25,7.79,7.22,12.35,8.92,4.56,1.7,8.83,2.17,12.82,1.42,5.45-1.04,8.86-3.56,10.22-7.57,1.36-4.01,1.1-8.61-.79-13.8-.74-2.07-1.89-4.18-3.46-6.3-1.57-2.12-3.41-4.27-5.5-6.44-2.1-2.17-4.38-4.29-6.84-6.37-2.46-2.07-5.01-4.1-7.63-6.09-1.78-1.32-3.64-2.71-5.58-4.18-1.94-1.46-3.75-3.02-5.43-4.67-1.68-1.65-3.2-3.47-4.56-5.45-1.36-1.98-2.36-4.2-2.99-6.65-1.26-4.53-1.26-8.47,0-11.82,1.26-3.35,3.12-6.18,5.58-8.49,2.46-2.31,5.21-4.08,8.26-5.31,3.04-1.23,5.66-1.98,7.86-2.26,6.61-.85,12.4-.47,17.38,1.13,4.98,1.61,8.78,3.68,11.4,6.23l-6.45,5.8c-3.04-2.74-6.21-4.81-9.52-6.23-3.3-1.42-6.42-2.12-9.36-2.12s-5.3.62-7.08,1.84c-1.89,1.23-3.17,2.83-3.85,4.81-.68,1.98-.97,3.92-.87,5.8.21,2.36.81,4.44,1.81,6.23,1,1.79,2.3,3.52,3.93,5.17,1.62,1.65,3.46,3.26,5.5,4.81,2.04,1.56,4.22,3.23,6.53,5.03,5.77,4.53,10.43,8.61,14,12.24,3.56,3.63,6.32,6.96,8.26,9.98,1.94,3.02,3.2,5.92,3.77,8.71.58,2.79.76,5.59.55,8.42-.21,3.59-1.39,6.94-3.54,10.05-2.15,3.11-4.75,5.76-7.79,7.93-3.36,2.46-7,4.18-10.93,5.17-3.93.99-8,1.53-12.19,1.63-6.5.19-12.37-.97-17.62-3.47-5.24-2.5-9.38-5.88-12.42-10.12Z"/>
    <path class="cls-2" d="M632.56,499.99h20.6c8.6,0,15.94.9,22.02,2.69,6.08,1.79,11.04,4.2,14.86,7.22,3.83,3.02,6.61,6.56,8.34,10.62,1.73,4.06,2.59,8.35,2.59,12.88,0,5.29-1.1,10-3.3,14.16-2.2,4.15-5.35,7.64-9.44,10.48-4.09,2.83-9.04,4.98-14.86,6.44-5.82,1.46-12.29,2.19-19.42,2.19h-5.66v32.42h-15.73v-99.09ZM648.29,505.79v55.07h.16c9.75,0,17.77-1.86,24.06-5.59,6.29-3.73,10.12-9.74,11.48-18.05.63-3.68.55-7.38-.24-11.11-.79-3.73-2.44-7.1-4.95-10.12-2.52-3.02-6.03-5.47-10.54-7.36-4.51-1.89-10.17-2.83-16.99-2.83h-2.99Z"/>
    <path class="cls-2" d="M741.88,599.08l36.8-83.38-7.08-15.71h16.99l44.83,99.09h-16.99l-8.65-19.25h-50.33l-8.49,19.25h-7.08ZM759.96,574.02h45.14l-22.81-50.54-22.33,50.54Z"/>
  </g>
</svg>