<svg xmlns="http://www.w3.org/2000/svg" xmlns:xlink="http://www.w3.org/1999/xlink" width="7647.053" height="7647.053" viewBox="0 0 5735.29 5735.29"><defs><path id="b" d="M.453 0h2.25v-.437H.984v-3.61h-.53Zm0 0"/><path id="c" d="M2.094-4.11c-1.078 0-1.875.844-1.875 2.126C.219-.766.969.063 2.03.063c1.031 0 1.875-.735 1.875-2.125 0-1.204-.703-2.047-1.812-2.047m-.031.423c.874 0 1.296.843 1.296 1.64 0 .922-.468 1.688-1.296 1.688S.78-1.141.78-2c0-.89.422-1.687 1.281-1.687m0 0"/><path id="d" d="M3.531-2.125H2.203v.422h.828V-.5c-.125.063-.36.11-.703.11C1.391-.39.766-1 .766-2.017c0-1.015.64-1.625 1.625-1.625.406 0 .687.079.89.172l.125-.437a2.5 2.5 0 0 0-1-.188C1.046-4.094.22-3.204.22-2c0 .625.219 1.172.562 1.516.39.375.907.53 1.516.53.547 0 1-.14 1.234-.233Zm0 0"/><path id="e" d="M.188-1.812v.39h1.468v-.39Zm0 0"/><path id="f" d="M.453-.016c.266.032.578.047.953.047.782 0 1.407-.203 1.782-.578.374-.375.593-.906.593-1.578 0-.64-.219-1.11-.578-1.437-.36-.344-.89-.516-1.64-.516-.407 0-.782.047-1.11.094Zm.531-3.593q.188-.047.61-.047c1.094 0 1.64.61 1.64 1.562C3.234-1.016 2.625-.39 1.5-.39c-.203 0-.39 0-.516-.015Zm0 0"/><path id="g" d="M.672.063c.219 0 .36-.157.36-.375 0-.22-.157-.375-.36-.375s-.36.156-.36.375c0 .218.141.375.36.375m0 0"/><path id="h" d="M.438 1.188h.515V-.391H.97c.172.282.515.454.89.454.688 0 1.329-.516 1.329-1.563 0-.875-.532-1.469-1.235-1.469-.469 0-.812.203-1.031.563H.906l-.015-.5H.406c.016.281.031.578.031.953Zm.515-2.875c0-.063.031-.141.047-.204a.826.826 0 0 1 .797-.656c.562 0 .86.5.86 1.078 0 .672-.329 1.125-.876 1.125a.804.804 0 0 1-.797-.625 1 1 0 0 1-.03-.219Zm0 0"/><path id="i" d="M2.422-4.266v1.735h-.016c-.125-.235-.437-.438-.875-.438-.703 0-1.312.594-1.297 1.563C.234-.531.766.063 1.47.063c.468 0 .828-.25.984-.563h.016l.03.5h.469c-.016-.203-.016-.484-.016-.75v-3.516Zm0 3.047c0 .078-.016.157-.031.235a.79.79 0 0 1-.766.625c-.578 0-.86-.485-.86-1.078 0-.641.329-1.125.86-1.125.406 0 .688.28.766.624.015.063.03.157.03.22Zm0 0"/><path id="j" d="M1.016 0v-2.5h.703v-.406h-.703v-.156c0-.438.109-.844.562-.844.156 0 .266.031.328.078l.078-.406a1.1 1.1 0 0 0-.453-.094c-.234 0-.5.078-.703.266-.25.234-.344.609-.344 1.015v.14H.078v.407h.406V0Zm0 0"/><path id="k" d="M1.422 0h.5v-3.906h-.453l-.844.469.094.39.687-.36h.016Zm0 0"/><path id="l" d="M.25-.203c.188.125.578.266 1.016.266.937 0 1.422-.547 1.422-1.172 0-.547-.391-.907-.876-1v-.016c.485-.172.72-.516.72-.906 0-.485-.344-.938-1.11-.938a1.9 1.9 0 0 0-1.016.297l.14.39c.157-.124.47-.265.767-.265.5 0 .687.281.687.594 0 .469-.484.656-.86.656H.845v.406h.297c.5 0 1 .235 1 .782 0 .312-.203.75-.875.75A1.8 1.8 0 0 1 .39-.61Zm0 0"/><path id="m" d="m.39.234 1.688-4.343h-.406L0 .234Zm0 0"/><path id="o" d="M.344-3.906v.437H2.25v.016L.563 0h.546l1.688-3.547v-.36Zm0 0"/><path id="p" d="M2.766 0v-.437h-1.75v-.016l.297-.281c.828-.797 1.343-1.375 1.343-2.094 0-.563-.344-1.14-1.187-1.14-.453 0-.828.171-1.11.406l.172.359c.188-.14.485-.328.828-.328.579 0 .782.375.782.765-.016.594-.453 1.094-1.453 2.047l-.422.39V0Zm0 0"/><path id="q" d="M1.578-3.969c-.797 0-1.36.719-1.36 2.031.016 1.297.532 2 1.282 2 .875 0 1.36-.734 1.36-2.046 0-1.25-.47-1.985-1.282-1.985m-.031.406c.547 0 .781.641.781 1.594 0 1-.25 1.625-.797 1.625-.468 0-.781-.578-.781-1.594 0-1.062.328-1.624.797-1.624m0 0"/><path id="r" d="M2.5-3.953c-.094 0-.234 0-.39.015a2.2 2.2 0 0 0-1.25.579c-.376.39-.657 1-.657 1.765C.203-.578.75.063 1.578.063c.813 0 1.297-.657 1.297-1.375 0-.75-.484-1.25-1.172-1.25-.437 0-.75.203-.937.437H.75c.078-.64.516-1.234 1.344-1.375.156-.031.297-.031.406-.031Zm-.922 3.61c-.547 0-.844-.47-.86-1.11 0-.094.032-.172.063-.234.156-.282.438-.485.766-.485.484 0 .797.328.797.89s-.297.938-.766.938m0 0"/><path id="s" d="M.672-2.047c.219 0 .36-.172.36-.375-.016-.219-.157-.375-.36-.375s-.36.156-.36.375c0 .203.141.375.36.375m0 2.11c.219 0 .36-.157.36-.375-.016-.22-.157-.375-.36-.375s-.36.156-.36.375c0 .218.141.375.36.375m0 0"/><path id="t" d="M2.594-3.906H.734l-.25 1.875c.141-.016.313-.031.532-.031.78 0 1.125.359 1.125.859 0 .516-.422.844-.922.844-.36 0-.672-.125-.828-.22L.25-.171c.188.125.547.235.969.235.843 0 1.453-.563 1.453-1.329 0-.5-.25-.828-.547-1a1.74 1.74 0 0 0-.844-.218c-.14 0-.234.015-.328.03l.156-1h1.485Zm0 0"/><path id="u" d="M1.531.063c.75 0 1.328-.454 1.328-1.125 0-.485-.296-.829-.796-1.016v-.016c.484-.234.656-.578.656-.906 0-.484-.39-.969-1.14-.969-.688 0-1.204.422-1.204 1.047 0 .328.188.672.61.875L1-2.03c-.484.203-.781.547-.781 1.047 0 .562.5 1.047 1.312 1.047m.016-.375c-.5 0-.797-.36-.781-.75 0-.375.25-.672.703-.797.515.14.86.375.86.843 0 .407-.313.704-.782.704m0-3.282c.469 0 .656.328.656.64 0 .36-.25.595-.594.704-.453-.11-.734-.328-.734-.719 0-.328.234-.625.672-.625m0 0"/><path id="v" d="M.453 0h.531v-1.625c.11.031.25.047.407.047.515 0 .968-.156 1.25-.453.203-.203.312-.5.312-.86 0-.359-.14-.656-.36-.843-.234-.22-.624-.344-1.14-.344-.422 0-.75.047-1 .078Zm.531-3.625a3 3 0 0 1 .485-.031c.578 0 .953.25.953.781 0 .563-.375.875-1.016.875q-.258 0-.422-.047Zm0 0"/><path id="w" d="M3.969 0h.5l-.25-4.047h-.657l-.718 1.953c-.188.516-.328.953-.438 1.375h-.015a13 13 0 0 0-.407-1.375l-.687-1.953H.625L.344 0h.5l.11-1.734c.03-.61.062-1.282.077-1.782h.016c.11.47.266 1 .469 1.563l.656 1.922h.39l.72-1.953c.202-.563.359-1.063.5-1.532h.015c0 .5.031 1.172.062 1.735Zm0 0"/><clipPath id="a"><path d="M0 0h5735.29v5735.29H0Zm0 0"/></clipPath></defs><path fill="#a57c00" d="M2865.555 1307.012c-94.117 142.968-171.723 413.32-171.723 413.32s89.234-251.32 273.906-379.984c184.672-128.66 535.903-186.489 793.418-73.399-10.195 23.188-14.433 9.426-28.375 8.223-248.707-21.496-456.187-51.434-678.77 100.832-25.308 17.316-109.652 68.703-87.202 101.988 52.68 78.11 185.27 150.934 278.699 160.703 270.203 28.25 451.367-222.078 688.781-277.613 42.258-9.883 85.566-7.621 127.316-17.734-219.472-203.246-795.218-645.246-1196.05-36.336"/><path fill="#a57c00" d="M2989.367 2613.602c-73.164-82.211-140-173.247-195.406-270.399 272.95-156.152 572.582-269.21 860.137-341.062-311.477-9.54-637.985 52.765-939.641 176.574-60.598-152.828-89.078-316.336-66.734-482.75 15.226-133.531 62.047-296.961 133.402-421.824 71.973-129.504 170.172-212.582 260.344-332.563-204.324 118.09-396.235 269.11-513.68 479.926-157.887 277.125-162.059 591.137-60.57 876.3-254.567 141.641-479.223 331.204-645.992 562.758-92.98-132.105-148.106-287.597-158.653-453.156-48.16-683.926 587.598-1176.351 1112.465-1510.68 53.879-33.933 108.777-66.367 164.79-97.843-251.52 62.137-491.306 166.793-714.587 299.804-345.976 208.801-660.242 505.852-786.656 902.383-135.188 411.446-23.52 900.68 303.418 1191.715l136.476 124.918s81.891-161.68 81.887-161.683c138.09-263.258 349.203-482.56 596.613-660.45 21.993 39.39 45.602 78.032 71.57 115.274 357.923 523.949 1047.473 835.543 1669.563 712.383-496.398-96.336-972.879-327.676-1308.746-709.625M1191.813 4227.191l222.644-504.398-42.805-95.047h102.762l271.164 599.445h-102.762l-52.332-116.464h-304.472l-51.395 116.464Zm109.414-151.554H1574.3l-137.973-305.711Zm2758.367-447.891h124.633c51.968 0 96.378 5.445 133.222 16.277 36.785 10.829 66.735 25.407 89.906 43.68 23.11 18.27 39.93 39.688 50.395 64.192 10.469 24.562 15.73 50.578 15.73 77.925 0 32.004-6.652 60.563-20.023 85.668-13.312 25.11-32.309 46.223-57.055 63.348-24.742 17.121-54.691 30.129-89.902 38.96-35.215 8.895-74.418 13.313-117.555 13.313h-34.242v196.082h-95.11Zm95.11 35.09v333.121h.964c58.988 0 107.512-11.254 145.566-33.82 38.055-22.508 61.227-58.93 69.457-109.145 3.813-22.265 3.329-44.71-1.39-67.215-4.781-22.57-14.766-42.957-30.012-61.23-15.184-18.27-36.48-33.152-63.707-44.527-27.285-11.434-61.527-17.184-102.789-17.184Zm566.167 564.355 222.645-504.398-42.836-95.047h102.793l271.164 599.445h-102.793l-52.332-116.464H4815.07l-51.363 116.464Zm109.387-151.554h273.101l-137.945-305.711Zm-1537.574 81.313 62.796-56.509c5.082 9.743 12.707 20.57 22.872 32.551 22.144 25.711 47.07 43.68 74.66 53.965 27.586 10.285 53.422 13.129 77.558 8.531 32.977-6.23 53.606-21.539 61.832-45.797 8.23-24.261 6.657-52.093-4.777-83.492-4.418-12.523-11.375-25.289-20.934-38.117-9.5-12.828-20.57-25.832-33.273-38.96-12.707-13.13-26.5-25.958-41.387-38.54-14.941-12.523-30.308-24.809-46.16-36.785-10.77-7.988-22.023-16.457-33.762-25.29a331 331 0 0 1-32.851-28.253c-10.164-9.984-19.36-20.996-27.586-32.973-8.23-11.98-14.281-25.414-18.09-40.234q-11.343-41.111 0-71.512c7.621-20.27 18.875-37.39 33.82-51.367q22.325-20.965 49.91-32.125c18.395-7.441 34.305-11.98 47.618-13.734 39.93-5.082 74.96-2.844 105.148 6.898 30.07 9.68 53.121 22.262 68.973 37.629l-39.024 35.152c-18.39-16.578-37.57-29.101-57.597-37.691-19.965-8.594-38.84-12.828-56.567-12.828-17.789 0-32.066 3.691-42.836 11.133-11.433 7.382-19.18 17.12-23.293 29.101-4.175 11.98-5.867 23.715-5.261 35.09 1.27 14.277 4.898 26.863 10.949 37.691 6.05 10.832 13.976 21.297 23.777 31.282 9.86 9.98 20.934 19.66 33.336 29.101 12.344 9.438 25.531 19.54 39.445 30.371 34.91 27.407 63.106 52.153 84.704 74.114 21.539 21.96 38.234 42.109 49.972 60.378 11.739 18.274 19.301 35.817 22.809 52.637s4.597 33.82 3.328 50.942q-1.905 32.582-21.418 60.804c-13.008 18.875-28.676 34.848-47.07 47.977-20.328 14.824-42.348 25.23-66.125 31.219-23.778 5.988-48.403 9.316-73.754 9.863-39.324 1.148-74.84-5.871-106.54-20.996-31.765-15.125-56.812-35.512-75.202-61.227m-770.696-529.203v35.09h-315.906v229.543h253.106v35.09h-253.106v264.633h315.906v35.09h-410.105v-599.446Zm328.25 160.992c6.957-23.414 12.703-45.496 17.121-66.367 4.418-20.812 8.227-39.203 11.434-55.238 3.148-18.274 5.387-35.395 6.656-51.367h83.735c-4.477 19.421-10.47 38.843-18.09 58.203-6.352 17.183-14.278 35.879-23.778 56.144-9.5 20.27-21.601 39.813-36.18 58.625ZM405.871 3627.746h95.168v327.977l265.45-327.977h48.523l-204.555 252.652 272.106 346.793H766.488l-215.02-274.011-50.429 63.347v210.664h-95.168Zm1079.473 1072.488h117.863v40.032h-175.039v-302.399h57.176Zm422.796-262.367v192.75c0 22.918 6.934 40.18 20.813 51.778q20.806 17.407 57.93 17.406c25.078 0 44.55-5.801 58.43-17.406 13.87-11.598 20.816-28.86 20.816-51.778v-192.75h57.176v191.883c0 24.656-6.192 45.543-18.559 62.652-12.375 17.121-28.926 29.88-49.652 38.29-20.739 8.417-43.637 12.617-68.711 12.617-25.078 0-47.899-4.2-68.461-12.618-20.567-8.41-36.867-21.168-48.902-38.289-12.04-17.109-18.055-37.996-18.055-62.652v-191.883Zm649.997 151.418 108.336 150.977h-64.2l-78.742-109.645-73.726 109.645h-63.696l108.332-150.977-108.836-151.418h64.2l79.242 110.516 74.23-110.516h63.696Zm428.316-151.418v192.75c0 22.918 6.934 40.18 20.813 51.778q20.805 17.407 57.93 17.406c25.077 0 44.55-5.801 58.429-17.406 13.871-11.598 20.813-28.86 20.813-51.778v-192.75h57.175v191.883c0 24.656-6.187 45.543-18.554 62.652-12.375 17.121-28.926 29.88-49.653 38.29-20.738 8.417-43.636 12.617-68.715 12.617-25.074 0-47.898-4.2-68.46-12.618-20.563-8.41-36.864-21.168-48.899-38.289-12.039-17.109-18.055-37.996-18.055-62.652v-191.883Zm547.18 141.843h63.195c21.395 0 37.531-4.636 48.399-13.92 10.863-9.282 16.3-21.755 16.3-37.423q0-23.49-16.05-36.765-16.054-13.268-48.649-13.27h-63.195Zm123.883 160.556-80.25-120.961h-43.633v120.96h-57.176v-302.398h120.371c26.746 0 49.402 4.067 67.957 12.184 18.559 8.125 32.43 19.004 41.63 32.633 9.194 13.636 13.792 28.867 13.792 45.683q-.002 29.593-19.809 53.738c-13.214 16.098-33.527 27.051-60.941 32.848l86.266 125.313Zm594.828-302.399-115.356 192.75v109.645h-57.176v-109.645l-115.859-192.75h63.695l80.75 148.371 80.75-148.37Zm0 0"/><g fill="none" stroke-miterlimit="10" clip-path="url(#a)"><path stroke="#fff" stroke-width="1.25" d="M27 33H0m5708.293 0h27M27 5702.29H0m5708.293 0h27M33 27V0m0 5708.29v27M5702.293 27V0m0 5708.29v27"/><path stroke="#000" stroke-width=".25" d="M27 33H0m5708.293 0h27M27 5702.29H0m5708.293 0h27M33 27V0m0 5708.29v27M5702.293 27V0m0 5708.29v27"/></g><path fill="none" stroke="#fff" stroke-miterlimit="10" stroke-width=".4" d="M71.457 11.5h2.25v-.441h-1.73V7.453h-.52Zm4.469-4.113c-1.078 0-1.88.843-1.88 2.125 0 1.226.75 2.054 1.821 2.054 1.031 0 1.875-.738 1.875-2.132 0-1.2-.71-2.047-1.816-2.047Zm-.024.43c.871 0 1.29.84 1.29 1.64 0 .918-.47 1.68-1.297 1.68-.82 0-1.29-.774-1.29-1.637 0-.887.434-1.684 1.297-1.684ZM81.5 9.375h-1.332v.418h.82V11c-.117.059-.351.11-.695.11-.941 0-1.559-.606-1.559-1.633 0-1.016.641-1.625 1.625-1.625.41 0 .68.078.895.171l.125-.425c-.172-.082-.54-.184-1.008-.184-1.355 0-2.183.879-2.187 2.086 0 .629.214 1.172.562 1.508.395.375.899.531 1.512.531.547 0 1.008-.137 1.242-.219Zm2.438-1.988c-1.083 0-1.88.843-1.88 2.125 0 1.226.75 2.054 1.817 2.054 1.031 0 1.879-.738 1.879-2.132 0-1.2-.715-2.047-1.817-2.047Zm-.028.43c.871 0 1.293.84 1.293 1.64 0 .918-.469 1.68-1.297 1.68-.824 0-1.289-.774-1.289-1.637 0-.887.43-1.684 1.293-1.684Zm2.246 1.863v.39h1.48v-.39Zm5.196-.305H90.02v.418h.824V11c-.121.059-.356.11-.7.11-.94 0-1.558-.606-1.558-1.633 0-1.016.64-1.625 1.625-1.625.41 0 .68.078.894.171l.125-.425c-.171-.082-.539-.184-1.007-.184-1.356 0-2.184.879-2.188 2.086 0 .629.215 1.172.563 1.508.394.375.898.531 1.511.531.547 0 1.008-.137 1.243-.219Zm2.438-1.988c-1.083 0-1.88.843-1.88 2.125 0 1.226.75 2.054 1.817 2.054 1.035 0 1.878-.738 1.878-2.132 0-1.2-.714-2.047-1.816-2.047Zm-.024.43c.867 0 1.289.84 1.289 1.64 0 .918-.47 1.68-1.297 1.68-.82 0-1.29-.774-1.29-1.637 0-.887.43-1.684 1.298-1.684Zm2.519 3.683h2.25v-.441h-1.73V7.453h-.52Zm2.832-.016c.262.032.574.051.945.051.786 0 1.41-.203 1.79-.582.378-.371.582-.914.582-1.574 0-.652-.211-1.121-.57-1.45-.356-.331-.887-.503-1.637-.503-.415 0-.793.035-1.11.082Zm.52-3.593a3 3 0 0 1 .613-.051c1.105 0 1.645.605 1.637 1.558 0 1.094-.606 1.715-1.723 1.715-.203 0-.394-.004-.527-.027Zm3.683 3.672c.223 0 .36-.16.36-.376 0-.222-.14-.378-.352-.378-.21 0-.36.156-.36.379 0 .214.145.374.352.374Zm1.016 1.125h.523v-1.579h.012c.172.29.508.457.89.457.688 0 1.321-.52 1.321-1.562 0-.883-.527-1.477-1.23-1.477-.473 0-.813.211-1.032.567h-.011l-.024-.5h-.472c.011.277.023.578.023.949Zm.523-2.868a.8.8 0 0 1 .036-.218c.101-.395.437-.653.796-.653.559 0 .864.496.864 1.078 0 .668-.325 1.125-.883 1.125a.813.813 0 0 1-.813-.836Zm4.871-2.582v1.735h-.011c-.133-.235-.434-.446-.88-.446-.706 0-1.304.594-1.3 1.563 0 .879.54 1.476 1.242 1.476.473 0 .828-.246.989-.57h.015l.024.504h.472c-.02-.2-.023-.492-.023-.75V7.238Zm0 3.043q0 .122-.023.227a.8.8 0 0 1-.777.633c-.567 0-.856-.489-.856-1.075 0-.644.324-1.125.871-1.125a.78.78 0 0 1 .762.614c.016.066.023.156.023.222Zm1.98 1.219V8.996h.7v-.402h-.7v-.156c0-.442.114-.84.563-.84.149 0 .258.03.336.066l.07-.406a1.2 1.2 0 0 0-.449-.086c-.246 0-.507.078-.707.27-.246.234-.335.605-.335 1.015v.137h-.407v.402h.406V11.5Zm5.97 0h.507V7.598h-.449l-.851.457.101.402.68-.367h.012Zm5.73-.2c.192.126.574.262 1.012.262.937 0 1.422-.542 1.422-1.167 0-.547-.39-.907-.867-1.004v-.012c.476-.172.718-.516.718-.918 0-.473-.347-.93-1.117-.93-.418 0-.816.153-1.02.301l.137.383c.168-.117.47-.258.782-.258.488 0 .683.277.683.59 0 .46-.484.66-.87.66h-.294v.395h.293c.512 0 1.004.234 1.012.78.004.325-.207.755-.883.755a1.74 1.74 0 0 1-.863-.246Zm3.219.438 1.683-4.347h-.41l-1.672 4.347Zm2.004-4.14v.437h1.91v.012l-1.691 3.453h.546l1.696-3.555v-.347Zm3.133 4.14 1.68-4.347h-.407l-1.676 4.347Zm4.422-.238v-.441h-1.75v-.012l.312-.285c.82-.793 1.344-1.375 1.344-2.094 0-.559-.356-1.137-1.196-1.137-.449 0-.832.168-1.105.399l.168.37c.18-.148.476-.331.828-.331.582 0 .777.367.777.765-.007.586-.457 1.09-1.453 2.04l-.414.402v.324Zm1.89-3.969c-.793 0-1.355.723-1.355 2.032.011 1.289.527 2.003 1.289 2.003.863 0 1.355-.734 1.355-2.058 0-1.242-.465-1.977-1.289-1.977Zm-.031.41c.547 0 .793.63.793 1.59 0 .996-.258 1.625-.797 1.625-.48 0-.793-.574-.793-1.59 0-1.062.336-1.625.797-1.625Zm4.297 3.559v-.441h-1.75v-.012l.312-.285c.82-.793 1.344-1.375 1.344-2.094 0-.559-.355-1.137-1.195-1.137-.45 0-.836.168-1.106.399l.168.37c.18-.148.477-.331.828-.331.582 0 .774.367.774.765-.004.586-.453 1.09-1.45 2.04l-.414.402v.324Zm2.816-3.96a2 2 0 0 0-.387.03 2.1 2.1 0 0 0-1.246.575c-.386.382-.66.988-.66 1.757 0 1.016.547 1.664 1.38 1.664.808 0 1.296-.66 1.296-1.375 0-.761-.488-1.261-1.176-1.261-.433 0-.758.203-.941.449h-.02c.09-.64.528-1.246 1.356-1.383.152-.027.289-.031.398-.027Zm-.914 3.616c-.55 0-.848-.472-.86-1.117a.5.5 0 0 1 .063-.234.87.87 0 0 1 .754-.477c.488 0 .805.336.805.89 0 .56-.305.938-.762.938Zm5.652-3.558v.437h1.907v.012l-1.692 3.453h.547l1.7-3.555v-.347Zm3.402 1.847c.223 0 .36-.16.36-.37-.008-.223-.144-.38-.355-.38-.207 0-.36.157-.36.38 0 .21.145.37.356.37Zm0 2.121c.223 0 .36-.164.36-.375-.008-.222-.144-.375-.355-.375-.207 0-.36.153-.36.375 0 .211.145.375.356.375Zm3.173-3.968h-1.864l-.254 1.87c.145-.015.317-.038.54-.038.78 0 1.117.36 1.125.863 0 .523-.426.844-.926.844a1.7 1.7 0 0 1-.832-.215l-.133.402c.184.121.543.242.973.242.843 0 1.449-.57 1.449-1.332 0-.492-.25-.828-.559-1.004a1.64 1.64 0 0 0-.84-.21c-.14 0-.226.011-.316.023l.148-1h1.489Zm3.242 3.902v-.441h-1.754v-.012l.312-.285c.82-.793 1.344-1.375 1.344-2.094 0-.559-.351-1.137-1.195-1.137-.45 0-.832.168-1.102.399l.168.37c.18-.148.473-.331.828-.331.582 0 .774.367.774.765-.008.586-.457 1.09-1.453 2.04l-.414.402v.324Zm.985-2.055c.218 0 .359-.16.359-.37-.008-.223-.145-.38-.356-.38-.21 0-.36.157-.36.38 0 .21.145.37.356.37Zm0 2.121c.218 0 .359-.164.359-.375-.008-.222-.145-.375-.356-.375-.21 0-.36.153-.36.375 0 .211.145.375.356.375Zm.827-.266c.192.126.575.262 1.012.262.938 0 1.422-.542 1.422-1.167 0-.547-.39-.907-.871-1.004v-.012c.48-.172.722-.516.722-.918 0-.473-.347-.93-1.117-.93-.418 0-.816.153-1.02.301l.137.383c.168-.117.47-.258.782-.258.484 0 .683.277.683.59 0 .46-.484.66-.87.66h-.294v.395h.293c.512 0 1.004.234 1.008.78.008.325-.203.755-.879.755a1.77 1.77 0 0 1-.867-.246Zm4.356.263c.742 0 1.324-.454 1.324-1.133 0-.473-.3-.817-.785-1.008v-.016c.48-.23.64-.582.64-.914 0-.484-.378-.96-1.132-.96-.684 0-1.207.421-1.207 1.038 0 .336.187.672.617.875l.008.02c-.48.203-.774.55-.774 1.043 0 .57.492 1.055 1.309 1.055Zm.012-.383c-.5 0-.801-.348-.782-.742 0-.376.246-.672.703-.805.528.148.856.379.856.851 0 .403-.305.696-.777.696Zm.003-3.27c.477 0 .66.324.66.637 0 .355-.257.594-.593.707-.45-.121-.742-.328-.742-.719 0-.336.238-.625.675-.625Zm3.258 3.59h.524V9.879c.12.031.261.035.418.035.511 0 .96-.148 1.238-.445.203-.207.312-.496.312-.864 0-.359-.132-.652-.355-.843-.238-.219-.617-.336-1.133-.336-.422 0-.75.035-1.004.078Zm.524-3.621c.09-.024.261-.04.492-.04.574 0 .953.259.953.79 0 .559-.383.867-1.016.867q-.258.002-.43-.043Zm6.18 3.621h.511l-.254-4.047h-.664l-.723 1.957c-.18.512-.324.953-.425 1.363h-.016a18 18 0 0 0-.41-1.363l-.691-1.957h-.665l-.28 4.047h.495l.11-1.734a58 58 0 0 0 .078-1.79h.012c.113.481.277 1 .468 1.57l.653 1.927h.398l.711-1.961c.207-.559.375-1.063.512-1.535h.02a27 27 0 0 0 .058 1.746Zm0 0"/><use xlink:href="#b" x="71" y="11.498"/><use xlink:href="#c" x="73.832" y="11.498"/><use xlink:href="#d" x="77.966" y="11.498"/><use xlink:href="#c" x="81.842" y="11.498"/><use xlink:href="#e" x="85.976" y="11.498"/><use xlink:href="#d" x="87.818" y="11.498"/><use xlink:href="#c" x="91.694" y="11.498"/><use xlink:href="#b" x="95.828" y="11.498"/><use xlink:href="#f" x="98.66" y="11.498"/><use xlink:href="#g" x="102.656" y="11.498"/><use xlink:href="#h" x="103.898" y="11.498"/><use xlink:href="#i" x="107.312" y="11.498"/><use xlink:href="#j" x="110.696" y="11.498"/><use xlink:href="#k" x="116.264" y="11.498"/><use xlink:href="#l" x="123.158" y="11.498"/><use xlink:href="#m" x="126.236" y="11.498"/><use xlink:href="#o" x="128.294" y="11.498"/><use xlink:href="#m" x="131.372" y="11.498"/><use xlink:href="#p" x="133.43" y="11.498"/><use xlink:href="#q" x="136.508" y="11.498"/><use xlink:href="#p" x="139.586" y="11.498"/><use xlink:href="#r" x="142.664" y="11.498"/><use xlink:href="#o" x="149.558" y="11.498"/><use xlink:href="#s" x="152.636" y="11.498"/><use xlink:href="#t" x="153.878" y="11.498"/><use xlink:href="#p" x="156.956" y="11.498"/><use xlink:href="#s" x="160.034" y="11.498"/><use xlink:href="#l" x="161.276" y="11.498"/><use xlink:href="#u" x="164.354" y="11.498"/><use xlink:href="#v" x="168.704" y="11.498"/><use xlink:href="#w" x="171.896" y="11.498"/></svg>