<?xml version="1.0" encoding="UTF-8"?>
<svg id="Layer_1" data-name="Layer 1" xmlns="http://www.w3.org/2000/svg" viewBox="0 0 540 466.53">
  <defs>
    <style>
      .cls-1 {
        fill: #009245;
      }
    </style>
  </defs>
  <path class="cls-1" d="M471.49,112.65c-6.89,1.67-14.03,1.3-21,2.93-39.17,9.16-69.05,50.46-113.63,45.8-15.41-1.61-37.29-13.63-45.98-26.51-3.7-5.49,10.21-13.97,14.39-16.82,36.72-25.12,70.95-20.18,111.98-16.63,2.3.2,3,2.47,4.68-1.36-42.48-18.66-100.42-9.12-130.89,12.11-30.47,21.23-45.19,62.69-45.19,62.69,0,0,12.8-44.6,28.33-68.19,66.13-100.45,161.11-27.54,197.31,5.99Z"/>
  <path class="cls-1" d="M294.6,322.21c-12.07-13.56-23.13-28.57-32.27-44.6,45.04-25.77,94.48-44.42,141.93-56.27-51.39-1.57-105.32,8.57-155.09,29-9.96-25.17-14.61-52.11-10.93-79.51,2.51-22.03,10.24-48.99,22.01-69.59,11.87-21.36,28.07-35.07,42.95-54.86-33.71,19.48-65.37,44.4-84.74,79.17-26.02,45.67-26.83,97.44-10.14,144.45-41.96,23.36-79.08,54.63-106.58,92.8-15.26-21.76-24.28-47.36-26.02-74.6-7.94-112.83,96.94-194.06,183.52-249.22,8.89-5.6,17.95-10.95,27.19-16.14-41.49,10.25-81.05,27.52-117.89,49.46-57.08,34.45-108.92,83.45-129.77,148.87-22.3,67.88-3.88,148.58,50.05,196.6l22.51,20.61s13.51-26.67,13.51-26.67c22.77-43.41,57.54-79.62,98.33-108.96,3.63,6.51,7.61,12.87,11.9,19.02,59.05,86.44,172.8,137.84,275.43,117.52-81.89-15.89-160.5-54.06-215.9-117.07Z"/>
</svg>